<svg xmlns="http://www.w3.org/2000/svg" width="200" height="200" viewBox="0 0 200 200" fill="none">
<path d="M70.7706 150.1C72.4376 149.51 74.1455 149.042 75.8806 148.7L76.0906 149.47C76.1141 149.561 76.1694 149.64 76.2466 149.693C76.3237 149.746 76.4174 149.77 76.5106 149.76L83.3806 148.96C85.2706 144.65 88.7406 138.12 88.7906 138.02C88.7406 136.39 88.7906 135.02 88.7906 133.46C84.8606 134.92 77.5906 137.69 73.7906 139.46C73.7047 139.515 73.6382 139.596 73.6006 139.691C73.5629 139.786 73.5559 139.891 73.5806 139.99C73.5806 139.99 73.6506 140.24 73.7406 140.6C71.8806 140.6 66.3106 140.33 64.9706 141.6C64.7623 141.89 64.6599 142.243 64.6806 142.6C64.6006 143.98 65.2906 154.7 66.3906 157.85C66.9606 159.5 68.1606 159.32 68.9806 157.74C69.9297 155.361 70.539 152.859 70.7906 150.31C70.7906 150.18 70.7606 150.19 70.7706 150.1ZM69.6206 141.15C70.8406 141.05 71.2206 141.07 73.8406 140.99C74.3106 142.77 75.2806 146.43 75.7806 148.3C74.0163 148.573 72.2748 148.978 70.5706 149.51C70.0396 146.752 69.722 143.957 69.6206 141.15Z" fill="#ffffff"/>
<path d="M162.811 53.6298C163.061 53.2798 162.741 52.8298 162.471 52.4798C163.235 51.6932 164.084 50.9923 165.001 50.3898C166.548 49.6188 167.962 48.6061 169.191 47.3898C169.701 46.8598 170.661 45.7698 170.301 45.1298C169.941 44.4898 169.301 44.4498 168.431 44.8198C168.808 44.4241 169.115 43.9677 169.341 43.4698C169.621 42.6898 168.961 42.0598 167.531 42.6398C168.051 41.8098 168.171 40.9398 167.291 40.5198C166.581 40.1798 165.541 40.9898 164.941 41.5198C163.762 42.5493 162.656 43.6586 161.631 44.8398C161.001 43.5198 160.001 41.9998 158.751 42.4798C157.501 42.9598 158.471 45.1098 159.111 46.2798L156.841 47.8498C156.498 47.6646 156.11 47.5781 155.721 47.5998C153.141 48.0398 141.291 57.0598 140.091 57.0598C139.171 57.0598 126.031 50.7598 114.671 48.9398C114.649 48.8717 114.608 48.8112 114.553 48.7652C114.498 48.7192 114.431 48.6896 114.361 48.6798C112.379 48.3417 110.37 48.1911 108.361 48.2298C108.3 48.2339 108.24 48.2513 108.187 48.2806C108.133 48.31 108.087 48.3507 108.051 48.3998H107.211C107.011 47.5898 106.271 45.7198 106.011 44.9998C106.691 44.4098 107.631 44.1098 108.121 43.1598C109.021 41.3998 108.981 38.3398 108.731 36.3798C109.861 35.5198 109.891 34.1398 109.631 32.7298C109.531 32.1598 109.221 30.8698 108.741 30.5498C108.471 30.3698 107.901 30.5498 107.411 30.7298C106.921 29.5898 106.921 30.1098 107.121 29.6498C107.213 29.4378 107.268 29.2109 107.281 28.9798C107.811 29.1398 108.911 28.0798 108.531 26.6798C108.331 26.1787 108.087 25.6967 107.801 25.2398C107.941 24.8998 108.241 24.4898 107.301 23.2398C106.896 22.8031 106.37 22.4968 105.791 22.3598H105.331C104.999 21.8781 104.512 21.525 103.951 21.3598C103.104 21.1439 102.206 21.2696 101.451 21.7098C101.251 21.8598 101.091 22.0598 100.891 22.1998C100.438 21.9253 99.9196 21.7801 99.3906 21.7801C98.8616 21.7801 98.3427 21.9253 97.8906 22.1998C97.6259 22.3037 97.3849 22.46 97.1821 22.6593C96.9793 22.8587 96.8189 23.097 96.7106 23.3598C96.2206 23.1908 95.7008 23.1257 95.1842 23.1687C94.6677 23.2118 94.1658 23.362 93.7106 23.6098C91.9831 24.5466 90.6909 26.1223 90.1106 27.9998C90.0944 28.2829 90.0944 28.5667 90.1106 28.8498H90.0006C88.5006 28.6298 86.5906 32.1898 88.1206 34.9598C88.3006 35.2898 88.5306 35.5998 88.7506 35.9598C89.3906 36.9598 89.1406 37.2598 90.5706 38.4798C90.9906 38.8398 91.0606 38.8098 91.3206 39.0298C91.5806 39.2498 91.4806 39.1398 91.6306 39.6998C91.7123 40.0297 91.8588 40.3401 92.0613 40.613C92.2638 40.886 92.5185 41.116 92.8106 41.2898C92.9168 42.268 93.3339 43.1862 94.0006 43.9098C94.2117 44.1461 94.4579 44.3484 94.7306 44.5098C94.8041 44.5513 94.8863 44.5752 94.9706 44.5798C95.2706 46.4398 95.6406 48.8598 95.8006 49.8898L94.9106 50.3698C93.7461 50.8384 92.6137 51.3829 91.5206 51.9998C91.4348 52.0592 91.3742 52.1483 91.3506 52.2498C90.2906 52.8098 89.2906 53.3398 88.7206 53.6798C80.7806 58.3898 58.2306 89.4398 58.0006 90.8598C57.9752 90.9412 57.9752 91.0284 58.0006 91.1098C58.3238 91.6255 58.7176 92.0934 59.1706 92.4998C59.031 92.7545 58.8633 92.9926 58.6706 93.2098C56.6706 94.5198 53.6706 96.4698 52.0606 98.2098C51.9477 98.3105 51.8629 98.4389 51.8148 98.5823C51.7666 98.7257 51.7567 98.8792 51.786 99.0276C51.8153 99.176 51.8827 99.3143 51.9817 99.4286C52.0808 99.543 52.2079 99.6296 52.3506 99.6798C52.6506 99.7798 52.7006 99.7498 54.6506 98.6798C54.1147 99.1499 53.6763 99.7207 53.3606 100.36C53.2306 100.91 53.7306 101.23 54.3606 101.13C54.715 101.037 55.0526 100.888 55.3606 100.69C55.1802 100.968 55.0842 101.293 55.0842 101.625C55.0842 101.957 55.1802 102.281 55.3606 102.56C56.3606 103.82 58.9806 99.8498 60.3606 98.8698C60.9206 99.5798 61.6806 101.24 62.8906 100.8C63.9406 100.41 62.7906 98.0998 62.8906 97.4298C63.2975 97.0392 63.7319 96.6782 64.1906 96.3498C64.962 96.9219 65.844 97.3272 66.7806 97.5398C68.4306 97.5398 85.6506 80.1598 86.9606 78.7698C86.4906 83.1898 84.1206 102.16 84.6206 105.85C84.8506 107.52 88.8606 107.76 90.5506 107.85C90.0406 119.85 89.7006 138.03 89.6106 138.22C86.9606 143.93 86.2406 145.49 85.3506 147.22C83.7306 150.32 76.9106 161.76 76.1406 164.36C76.0306 164.77 76.0206 164.93 76.4506 165.69C75.1619 167.045 73.9659 168.485 72.8706 170C72.3206 171 74.6806 180.32 76.3506 183.62C76.7306 184.36 77.3506 185.5 78.1806 185.47C80.6806 185.38 80.6706 176.4 80.6006 173.89C80.6002 173.812 80.5717 173.738 80.5206 173.68C80.9737 173.003 81.468 172.356 82.0006 171.74C82.3185 171.959 82.6528 172.153 83.0006 172.32C83.3406 172.47 83.7206 172.21 84.0006 171.98C87.3306 169.36 105.291 146.98 109.141 136.42C110.891 131.6 113.221 124.94 113.881 120.22C114.284 117.236 114.321 114.213 113.991 111.22C113.991 111.177 114.007 111.137 114.037 111.107C114.067 111.077 114.108 111.06 114.151 111.06C114.193 111.06 114.234 111.077 114.264 111.107C114.294 111.137 114.311 111.177 114.311 111.22C114.811 114.23 114.909 117.294 114.601 120.33C113.861 126.88 108.691 140.53 105.931 145.55C108.311 145.11 113.151 144.15 115.491 143.45C123.291 141.08 130.491 134.01 131.121 126.07C131.324 122.329 131.324 118.58 131.121 114.84C131.053 109.676 130.382 104.538 129.121 99.5298C131.241 98.3798 133.181 97.0298 133.811 95.7898C135.161 93.1398 131.591 77.8898 130.811 73.6098C135.081 74.0798 142.351 74.9298 145.741 72.2798C149.621 69.1598 158.001 60.3798 162.811 53.6298ZM80.0606 173.34C78.2606 172.25 75.7406 169.66 75.3606 167.63C75.7706 167.11 76.2006 166.63 76.6006 166.09C77.9558 168.158 79.6455 169.986 81.6006 171.5C81.0513 172.082 80.5371 172.697 80.0606 173.34ZM159.561 46.5598C159.612 46.5268 159.649 46.4753 159.664 46.4158C159.679 46.3562 159.671 46.2933 159.641 46.2398C159.291 45.5898 158.241 43.2998 158.971 43.0398C159.391 42.8798 159.761 43.1398 160.071 43.4898C160.544 44.0904 160.912 44.7666 161.161 45.4898C161.179 45.5486 161.213 45.6013 161.259 45.6422C161.306 45.6831 161.362 45.7106 161.423 45.7219C161.483 45.7332 161.546 45.7279 161.603 45.7063C161.661 45.6848 161.712 45.648 161.751 45.5998C162.751 44.4898 165.091 41.9598 166.411 41.2798C167.411 40.7598 167.651 41.7198 165.201 43.9598C164.638 44.3889 164.097 44.8462 163.581 45.3298C163.552 45.3691 163.537 45.4164 163.537 45.4648C163.537 45.5133 163.552 45.5606 163.581 45.5998C163.581 45.8598 163.791 46.1498 164.151 45.8798C165.02 45.1168 165.938 44.4119 166.901 43.7698C167.392 43.421 167.962 43.2009 168.561 43.1298C168.261 44.0498 165.471 46.5498 165.231 46.8298C165.154 46.8981 165.108 46.9935 165.102 47.0955C165.095 47.1975 165.129 47.2979 165.196 47.3753C165.263 47.4526 165.357 47.5006 165.459 47.5089C165.561 47.5173 165.662 47.4853 165.741 47.4198C166.851 46.6998 168.791 45.0198 169.461 45.2698C170.131 45.5198 168.141 47.3798 167.641 47.8198C164.771 50.3098 165.511 48.7098 162.191 52.0898C160.745 50.5068 159.086 49.1335 157.261 48.0098L159.561 46.5598ZM116.111 94.3898C115.941 93.0098 115.731 91.5198 115.471 89.9698L115.901 89.3998C117.901 86.8298 118.501 82.7398 118.311 79.5298C119.381 84.2198 120.231 88.8298 120.881 93.4098L116.111 94.3898ZM101.241 60.1498C98.6106 58.1498 94.3806 54.6998 91.9206 52.3398L95.9206 50.3398C99.5936 53.7707 102.738 57.727 105.251 62.0798C109.093 69.1381 111.943 76.6927 113.721 84.5298L99.4606 64.3598L101.321 60.4998C101.345 60.4404 101.351 60.3748 101.336 60.3121C101.322 60.2494 101.289 60.1927 101.241 60.1498ZM108.001 48.8098C108.061 48.9198 108.751 50.3898 109.801 52.9598C109.801 53.0698 109.611 55.5698 109.521 56.4498C108.244 55.9439 107.041 55.2714 105.941 54.4498C106.161 53.5798 107.151 49.6298 107.221 48.7398L108.001 48.8098ZM104.451 59.5498C104.521 59.3698 104.591 59.1298 104.671 58.8498L105.341 59.1998C105.721 59.4498 105.571 58.6898 105.911 60.8898C105.911 61.2598 106.011 61.6698 106.031 62.1198C105.571 61.2898 105.001 60.3998 104.461 59.5498H104.451ZM103.891 58.7098C102.001 56.0302 99.8508 53.5447 97.4706 51.2898L105.001 54.5598C104.711 55.2498 104.291 57.3598 103.901 58.7098H103.891ZM111.581 64.5698C110.581 61.8398 109.811 58.7898 109.431 57.9898C109.453 57.7404 109.453 57.4893 109.431 57.2398C109.575 57.2937 109.727 57.3273 109.881 57.3398C109.977 57.3409 110.071 57.3071 110.144 57.2446C110.218 57.1822 110.266 57.0952 110.281 56.9998C110.361 56.6698 110.491 54.9998 110.511 54.6298C113.42 61.9744 115.848 69.5002 117.781 77.1598C112.131 65.1398 113.001 68.6198 111.591 64.5698H111.581ZM119.851 83.6598C117.571 72.7298 113.561 59.0998 109.001 48.9998C110.675 49.0008 112.347 49.1345 114.001 49.3998C114.851 56.9998 114.141 56.7398 114.711 57.0398C115.281 57.3398 118.711 58.7198 119.221 58.9298C119.171 59.6998 119.891 81.7198 119.861 83.6598H119.851ZM108.341 31.1898C108.862 32.3275 109.046 33.5908 108.871 34.8298C108.789 35.1452 108.622 35.4318 108.387 35.6577C108.153 35.8836 107.86 36.04 107.542 36.1094C107.224 36.1789 106.892 36.1587 106.585 36.051C106.277 35.9434 106.006 35.7526 105.801 35.4998C105.323 34.4947 104.964 33.4377 104.731 32.3498C105.001 31.9998 107.881 31.2998 108.341 31.1898ZM94.5806 41.1898C94.2153 41.0235 93.8414 40.8767 93.4606 40.7498C93.205 40.6448 92.9768 40.4826 92.7936 40.2757C92.6104 40.0688 92.477 39.8227 92.4036 39.5563C92.3302 39.2898 92.3189 39.0101 92.3703 38.7386C92.4218 38.4671 92.5348 38.2109 92.7006 37.9898C93.3306 37.4598 93.9006 37.4898 94.4206 38.2798C94.7506 38.8898 94.7406 38.9398 94.8906 38.9998C94.9336 39.0188 94.9802 39.0284 95.0272 39.0278C95.0742 39.0273 95.1206 39.0168 95.1632 38.9969C95.2058 38.977 95.2437 38.9483 95.2743 38.9125C95.3049 38.8768 95.3275 38.835 95.3406 38.7898C95.4888 38.1639 95.5126 37.5149 95.4106 36.8798C95.2906 36.1898 95.2706 33.1298 95.2906 33.0298C95.5827 33.1838 95.9108 33.2563 96.2406 33.2398C98.0506 33.1698 98.4106 32.2398 99.1306 31.4798C99.9606 31.5598 100.131 31.9598 101.071 31.4798C101.511 31.2295 101.914 30.9199 102.271 30.5598C102.558 30.6775 102.836 30.818 103.101 30.9798C103.7 31.2681 104.376 31.3566 105.029 31.2324C105.682 31.1082 106.279 30.7778 106.731 30.2898C106.841 30.4998 106.941 30.7098 107.031 30.9298C106.112 31.215 105.247 31.6509 104.471 32.2198C104.301 32.4298 104.551 33.5698 104.611 33.8398C103.773 33.9452 102.962 34.2064 102.221 34.6098C102.071 34.0898 101.741 33.1198 101.221 32.8498C101.064 32.802 100.897 32.802 100.741 32.8498C99.8406 32.9898 96.6106 33.9598 96.2206 34.4898C95.8806 34.8598 96.8506 37.7198 97.1506 38.1898C98.3006 39.9698 101.671 39.4498 102.301 37.3698C102.457 36.6718 102.457 35.9479 102.301 35.2498C102.591 35.2498 103.461 34.9398 103.561 34.9098C104.251 36.4598 104.451 36.5498 105.251 38.2198C105.141 38.3098 104.961 38.4598 104.811 38.5598C104.101 39.0298 103.951 38.9498 103.991 39.1498C104.002 39.1895 104.028 39.2236 104.063 39.2457C104.098 39.2678 104.14 39.2764 104.181 39.2698C104.6 39.2099 105.01 39.0956 105.401 38.9298C105.634 38.8427 105.827 38.6715 105.941 38.4498C106.221 37.8198 104.671 35.4498 104.061 34.7398C104.181 34.7398 104.461 34.5398 104.671 34.4298C104.951 35.5498 105.141 36.4298 106.221 36.8698C106.533 36.9877 106.865 37.0413 107.199 37.0276C107.532 37.0138 107.859 36.933 108.161 36.7898C108.321 38.5498 108.291 41.4098 107.451 42.9698C107.021 43.7798 105.961 44.0898 105.281 44.7598C105.081 44.9498 105.211 45.2198 105.281 45.5098C106.391 48.5998 106.411 48.5898 106.351 48.9898C106.056 50.6501 105.645 52.2874 105.121 53.8898C104.871 53.7798 102.061 52.2898 96.5606 50.1498C96.3906 49.0198 95.4806 42.9898 95.1906 41.8798C95.2106 41.4898 95.1606 41.3998 94.5806 41.1398V41.1898ZM101.581 37.1098C101.261 38.1998 99.7506 38.6698 98.6706 38.3698C97.5906 38.0698 97.5206 37.5198 97.0106 36.2198C96.7715 35.7232 96.6065 35.1943 96.5206 34.6498C96.8506 34.2898 100.461 33.5498 100.911 33.4798C101.542 34.5596 101.779 35.8249 101.581 37.0598V37.1098ZM62.4506 97.1498C62.0706 97.5198 62.5806 98.7298 62.6606 99.7798C62.6606 99.8698 62.6606 100.26 62.6006 100.29C62.0506 100.47 61.5406 99.6398 61.2306 99.1398C60.9206 98.6398 60.6106 97.9598 60.1206 98.1398C59.1206 98.6098 56.8006 101.69 55.8906 102.01C55.4306 101.13 58.0606 98.6198 58.1506 98.4798C58.1892 98.4156 58.2094 98.3419 58.209 98.2669C58.2087 98.192 58.1878 98.1185 58.1486 98.0546C58.1094 97.9907 58.0535 97.9387 57.9868 97.9044C57.9202 97.87 57.8454 97.8546 57.7706 97.8598C57.5906 97.8598 57.4706 98.0198 57.1906 98.2698C56.3389 99.101 55.3641 99.7959 54.3006 100.33C55.2648 99.2236 56.2968 98.1783 57.3906 97.1998C57.4446 97.1443 57.4826 97.0752 57.5006 96.9998C57.5006 96.9998 57.2906 96.4698 56.8806 96.6798C56.3006 96.9998 53.4806 98.6298 52.5906 99.0498C52.4706 98.9698 52.5406 98.8498 52.5906 98.7298C54.0006 96.9998 57.1006 94.8998 59.0006 93.5698C59.2236 93.3402 59.4092 93.077 59.5506 92.7898C60.8664 94.0142 62.2702 95.1405 63.7506 96.1598C63.2945 96.4589 62.8601 96.7897 62.4506 97.1498ZM85.7206 106.24C85.5006 106.1 85.3406 105.97 85.3106 105.79C84.7606 101.71 87.8206 78.5898 87.7706 77.6798C87.7706 77.6265 87.7599 77.5736 87.7392 77.5244C87.7185 77.4752 87.6881 77.4307 87.6499 77.3934C87.6117 77.3561 87.5664 77.3269 87.5167 77.3074C87.467 77.2879 87.4139 77.2785 87.3606 77.2798C86.8506 77.2798 87.7506 77.2798 75.0106 89.4798C74.1706 90.2698 67.7506 96.4098 66.6806 96.8198C65.2106 96.7098 59.6806 92.2998 58.7806 90.9098C60.5206 87.3898 81.6206 58.4298 88.9206 53.9998C89.4806 53.6598 90.4406 53.1298 91.4906 52.5698C91.8536 52.9123 92.2451 53.2234 92.6606 53.4998C94.9806 55.6998 98.2106 58.4398 100.661 60.4998L98.7506 64.2898C98.7216 64.34 98.7064 64.3969 98.7064 64.4548C98.7064 64.5128 98.7216 64.5697 98.7506 64.6198C114.261 86.8698 114.031 86.6198 114.131 86.6198C115.125 91.7613 115.743 96.9685 115.981 102.2C115.981 103.61 115.981 103.49 116.041 103.39C116.101 103.29 116.041 103.46 116.041 103.46C113.621 106.1 89.6706 108.56 85.7206 106.24ZM141.001 73.1098C136.471 73.7398 131.351 72.7998 130.361 72.7598C129.81 70.094 128.714 67.571 127.141 65.3498C127.117 65.3175 127.081 65.2954 127.042 65.2879C127.002 65.2805 126.961 65.2883 126.927 65.3098C126.893 65.3313 126.868 65.3649 126.858 65.4038C126.847 65.4427 126.852 65.4842 126.871 65.5198C127.451 66.6998 129.391 71.7898 129.871 73.0298C129.721 73.5098 134.391 92.8198 133.071 95.4198C131.891 97.7698 125.021 100.73 122.541 101.58C122.05 96.0128 121.249 90.4775 120.141 84.9998C120.481 82.1198 120.041 64.9998 119.911 58.6698C119.907 58.5963 119.882 58.5253 119.84 58.4652C119.797 58.405 119.739 58.3581 119.671 58.3298L115.181 56.4398C115.16 54.0634 115.01 51.6899 114.731 49.3298C125.941 51.2698 139.001 57.6798 140.091 57.6898C141.671 57.6898 153.411 48.6898 155.841 48.3298C156.921 48.1598 161.561 52.2098 162.101 53.3298C157.361 59.9498 149.031 68.6498 145.171 71.6598C143.927 72.4913 142.492 72.9904 141.001 73.1098Z" fill="#ffffff"/>
<path d="M100.551 35.1099C100.538 35.0442 100.513 34.9816 100.476 34.9257C100.44 34.8699 100.392 34.8217 100.337 34.7841C100.282 34.7465 100.22 34.7202 100.154 34.7066C100.089 34.693 100.021 34.6924 99.9556 34.7049C99.89 34.7173 99.8274 34.7426 99.7715 34.7793C99.7156 34.8159 99.6675 34.8632 99.6299 34.9185C99.5923 34.9737 99.5659 35.0358 99.5523 35.1013C99.5387 35.1667 99.5381 35.2342 99.5506 35.2999C99.7506 36.2999 99.7906 36.5299 100.231 36.5299C100.314 36.5301 100.396 36.5097 100.469 36.4703C100.542 36.431 100.605 36.374 100.65 36.3044C100.696 36.2349 100.724 36.1551 100.731 36.0723C100.738 35.9894 100.724 35.9061 100.691 35.8299C100.661 35.6699 100.571 35.1999 100.551 35.1099ZM103.611 41.7299C104.261 41.9199 104.881 41.6099 104.861 41.4499C104.841 41.2899 104.861 41.3699 103.981 41.0399C103.391 40.8199 102.741 40.0399 102.511 40.1599C102.281 40.2799 102.631 40.9199 102.711 41.0399C102.925 41.3644 103.242 41.6075 103.611 41.7299ZM121.901 32.2299C120.591 37.7199 119.631 42.3799 119.471 43.3099C119.364 43.7145 119.344 44.1369 119.411 44.5499C119.941 45.6799 126.791 47.9099 127.661 47.4699C128.531 47.0299 130.791 41.9399 133.421 36.6899C135.032 36.7413 136.644 36.624 138.231 36.3399C139.901 36.0333 141.527 35.5194 143.071 34.8099C146.451 33.2499 150.151 26.5699 150.651 23.2099C151.026 19.5619 150.253 15.8878 148.441 12.6999C140.051 -1.85015 115.441 5.97985 117.441 22.1399C118.012 25.8376 119.55 29.3185 121.901 32.2299ZM128.001 44.1399C128.001 44.2999 127.821 44.2799 127.001 44.1399C125.323 43.9291 123.699 43.4104 122.211 42.6099C121.511 42.2299 121.321 42.1499 121.391 41.9799C121.461 41.8099 121.611 41.8699 122.691 42.1699C122.791 42.1699 125.891 43.1699 126.781 43.4799C127.931 43.9999 128.001 43.9999 128.001 44.1399ZM127.821 27.8699C128.888 27.9252 129.953 27.7048 130.911 27.2299C131.801 27.6612 132.764 27.9224 133.751 27.9999C132.071 31.1299 128.661 37.5099 127.561 40.9099L123.321 39.7399C124.321 37.2799 126.531 31.5199 127.801 27.8699H127.821ZM127.471 27.0399C126.724 26.9271 126.035 26.5726 125.51 26.0307C124.984 25.4888 124.651 24.7894 124.561 24.0399C124.281 22.0399 125.561 19.7999 127.491 20.3299C128.701 20.6599 128.851 21.6199 128.641 22.8299C128.461 23.7099 127.811 25.9199 127.451 26.9999L127.471 27.0399ZM130.191 24.6399C130.297 23.9855 130.543 23.3615 130.911 22.8099C131.086 22.5091 131.341 22.2635 131.649 22.1008C131.957 21.9382 132.304 21.8651 132.651 21.8899C133.391 22.1099 133.711 23.5099 133.101 24.3899C132.514 25.1678 131.785 25.8264 130.951 26.3299C130.664 26.1614 130.435 25.9092 130.296 25.6071C130.156 25.305 130.113 24.9675 130.171 24.6399H130.191ZM121.001 11.9299C125.481 6.53985 133.911 4.39985 140.001 6.61985C143.309 7.75549 146.092 10.0549 147.831 13.0899C149.555 16.1234 150.292 19.6183 149.941 23.0899C149.481 26.1999 145.941 32.6599 142.831 34.0899C139.987 35.3869 136.885 36.0163 133.761 35.9299C133.421 35.9299 133.061 35.9299 132.931 36.1699C132.341 37.3699 131.261 39.6899 130.201 41.8699C129.469 41.5164 128.71 41.2221 127.931 40.9899C129.091 37.6699 132.751 31.1499 134.491 27.9899C135.998 28.119 137.514 27.8573 138.891 27.2299C139.263 27.034 139.571 26.7362 139.78 26.3712C139.988 26.0062 140.089 25.5893 140.069 25.1694C140.049 24.7494 139.909 24.3439 139.667 24.0004C139.425 23.6568 139.09 23.3895 138.701 23.2299C137.151 22.4699 135.761 24.2899 134.951 25.8199C134.731 26.2199 134.481 26.6899 134.201 27.2199C133.392 27.1667 132.594 27.0018 131.831 26.7299C132.591 26.1954 133.266 25.5479 133.831 24.8099C134.147 24.3317 134.308 23.7671 134.29 23.1939C134.272 22.6208 134.076 22.0673 133.731 21.6099C133.459 21.2944 133.082 21.0888 132.669 21.0317C132.257 20.9747 131.838 21.07 131.491 21.2999C130.79 21.7302 130.229 22.3535 129.874 23.095C129.52 23.8364 129.386 24.6645 129.491 25.4799C129.599 25.9401 129.847 26.3556 130.201 26.6699C129.545 26.9415 128.841 27.0776 128.131 27.0699C128.531 25.8899 129.181 23.7599 129.351 22.8899C129.457 22.3938 129.481 21.8836 129.421 21.3799C129.343 20.9474 129.143 20.5465 128.843 20.2254C128.543 19.9043 128.157 19.6767 127.731 19.5699C125.301 18.8799 123.511 21.5699 123.861 24.0799C123.959 24.9793 124.346 25.823 124.962 26.4859C125.578 27.1487 126.391 27.5955 127.281 27.7599C126.001 31.3599 124.001 37.1699 123.001 39.6499L120.801 39.0799C122.211 31.9999 122.381 32.1699 122.181 32.0799C119.908 29.1829 118.455 25.7296 117.971 22.0799C117.735 20.2701 117.883 18.431 118.405 16.6822C118.927 14.9335 119.811 13.3142 121.001 11.9299ZM134.881 27.2799C135.581 26.0099 136.981 23.2299 138.341 23.9099C138.613 24.0194 138.85 24.2013 139.026 24.4356C139.202 24.67 139.311 24.9481 139.341 25.2399C139.321 26.9999 136.581 27.3099 134.841 27.2799H134.881ZM173.161 31.6899C174.366 30.9811 175.789 30.7392 177.161 31.0099C178.667 31.0368 180.106 31.6392 181.183 32.6935C182.26 33.7478 182.892 35.1741 182.951 36.6799C182.045 36.1542 180.985 35.9564 179.951 36.1199C177.441 36.3399 174.161 37.6999 174.601 40.1199C174.961 42.1199 177.601 41.8499 179.601 41.3099C181.601 40.7699 183.191 39.7899 183.601 37.8599C186.031 39.6299 186.601 42.7299 186.701 45.7599C186.701 45.8023 186.717 45.843 186.747 45.873C186.777 45.903 186.818 45.9199 186.861 45.9199C186.903 45.9199 186.944 45.903 186.974 45.873C187.004 45.843 187.021 45.8023 187.021 45.7599C187.091 42.3699 186.481 39.0499 183.711 37.1199C183.739 36.2516 183.591 35.3867 183.276 34.5773C182.96 33.7679 182.484 33.031 181.875 32.4112C181.266 31.7914 180.538 31.3015 179.735 30.9712C178.931 30.641 178.069 30.4772 177.201 30.4899C175.812 30.2871 174.397 30.5773 173.201 31.3099C172.831 31.4899 173.001 31.7599 173.161 31.6899ZM182.281 38.8599C181.151 40.3399 177.951 41.1099 176.471 40.8599C175.921 40.7699 175.471 40.5399 175.351 39.9699C174.991 37.9699 178.441 36.8799 180.501 36.8099C181.339 36.7456 182.176 36.96 182.881 37.4199C182.805 37.9427 182.599 38.438 182.281 38.8599ZM168.581 19.9999C169.651 18.6799 168.931 16.3799 165.941 16.3699C164.781 16.3699 164.221 17.5499 164.301 18.6799C164.481 21.3699 167.511 21.2899 168.581 19.9999ZM165.001 18.6299C165.001 17.9699 165.311 17.1099 166.001 17.1199C167.611 17.1199 168.351 17.8699 168.351 18.6999C168.311 20.5899 164.871 21.5699 165.001 18.6299ZM164.591 132C155.801 128.49 151.721 145.48 144.541 160.08C144.495 160.694 144.515 161.31 144.601 161.92C144.601 163.45 144.771 173.58 145.661 174.73C145.901 175.19 146.911 174.73 147.381 174.44C151.372 171.969 155.134 169.144 158.621 166C158.65 165.966 158.673 165.926 158.687 165.883C158.7 165.84 158.705 165.795 158.701 165.75C160.561 163.1 167.531 149.3 169.221 142.38C170.401 137.48 169.231 133.83 164.591 132ZM167.731 144.7C163.025 144.097 158.475 142.611 154.321 140.32C156.661 135.89 159.551 130.84 164.321 132.74C169.631 134.85 169.521 139.22 167.731 144.67V144.7ZM151.091 170.7C150.784 170.442 150.448 170.221 150.091 170.04C148.739 169.353 147.178 169.203 145.721 169.62C145.621 168.43 145.051 160.69 145.051 160.62C152.541 163.36 150.231 162.17 157.651 165.86C156.871 166.6 153.941 168.65 151.091 170.68V170.7ZM156.251 141.76C157.226 142.293 158.227 142.777 159.251 143.21C156.958 146.81 154.933 150.574 153.191 154.47C151.511 157.98 151.571 157.96 149.861 161.79C148.861 161.47 147.861 161.17 146.861 160.87C147.941 158.72 155.621 143 156.251 141.74V141.76ZM150.251 161.89C153.501 156.06 156.811 148.81 159.651 143.34C160.651 143.76 161.651 144.1 162.651 144.4C162.121 145.4 160.571 148.06 160.161 148.83C159.751 149.6 155.641 157.7 155.351 158.32C154.891 159.32 153.631 162.11 153.241 163C152.221 162.55 151.241 162.21 150.211 161.87L150.251 161.89ZM153.601 163.13C154.211 162.02 156.721 157.36 157.031 156.76C157.501 155.83 162.741 145.12 163.031 144.5C163.951 144.76 164.921 144.98 165.541 145.1C163.711 150.1 158.441 159.73 156.541 164.48C154.811 163.67 154.421 163.47 153.561 163.11L153.601 163.13ZM154.211 140.61L156.001 141.61C152.393 147.753 149.251 154.157 146.601 160.77L145.101 160.31C150.911 147.93 151.181 146.31 154.171 140.59L154.211 140.61ZM158.331 165.35L156.821 164.63C158.451 161.43 163.551 153.22 165.881 145.17C166.441 145.27 166.991 145.36 167.521 145.43C164.951 152.287 161.865 158.939 158.291 165.33L158.331 165.35ZM127.001 171.84C127.399 171.51 127.684 171.063 127.815 170.562C127.946 170.062 127.917 169.533 127.731 169.05C127.646 168.353 127.326 167.706 126.825 167.215C126.323 166.724 125.669 166.418 124.971 166.349C124.272 166.279 123.571 166.449 122.982 166.831C122.393 167.213 121.952 167.784 121.731 168.45C120.451 167.62 119.061 166.74 117.731 165.9C118.731 164.57 121.671 165.16 121.971 166.25C121.977 166.292 122 166.33 122.035 166.356C122.07 166.381 122.113 166.391 122.156 166.385C122.198 166.378 122.236 166.355 122.261 166.32C122.287 166.286 122.297 166.242 122.291 166.2C122.141 164.46 118.521 163.44 117.061 165.49C115.771 164.7 114.171 163.74 112.831 163.01C113.981 162.01 116.551 162.57 116.831 163.61C116.844 163.645 116.869 163.675 116.902 163.694C116.935 163.712 116.974 163.719 117.011 163.711C117.048 163.704 117.082 163.684 117.106 163.654C117.129 163.625 117.142 163.588 117.141 163.55C117.011 161.93 113.661 160.84 112.141 162.62C111.504 162.263 110.834 161.968 110.141 161.74C110.014 161.687 109.875 161.673 109.74 161.697C109.605 161.722 109.48 161.786 109.381 161.88C106.851 165.03 98.3206 173.21 94.3806 174.16C94.2816 174.175 94.1882 174.216 94.1099 174.278C94.0316 174.34 93.9712 174.423 93.9347 174.516C93.8982 174.609 93.8869 174.71 93.902 174.809C93.9171 174.908 93.958 175.002 94.0206 175.08C94.8858 175.958 95.8766 176.703 96.9606 177.29C95.9606 178.29 95.1806 179.19 94.6006 179.84C94.3006 180.16 94.1406 186.28 94.4006 187.63C94.4393 187.762 94.5246 187.876 94.6406 187.95C95.9006 188.81 112.131 195.83 113.791 194.89C114.901 194.26 128.151 180.47 128.361 180.05C128.681 179.39 128.571 174.99 128.551 173.23C128.471 172.7 127.481 172.13 127.001 171.84ZM95.0006 185.05V182.82C99.1506 184.82 108.651 188.9 112.251 190.04C113.171 190.34 113.251 190.3 113.731 190.04C116.481 188.28 126.191 177.34 127.971 175.67V177.78C122.571 183.19 113.401 192.67 113.231 192.13C112.241 192.07 95.8606 185.45 95.0006 185.05ZM126.751 168.47C127.11 169.076 127.303 169.766 127.311 170.47C127.307 170.694 127.252 170.914 127.15 171.114C127.047 171.313 126.901 171.486 126.721 171.62C125.881 171.06 124.291 170.02 122.411 168.8C123.441 166.77 125.731 166.74 126.711 168.47H126.751ZM94.7506 174.87C99.0106 173.61 107.101 165.81 109.821 162.43C110.475 162.612 111.106 162.87 111.701 163.2C110.701 165.06 111.771 167.1 112.151 166.81C112.361 166.65 111.981 166.59 111.921 165.61C111.895 164.894 112.057 164.184 112.391 163.55C113.771 164.27 115.391 165.21 116.761 166C115.921 167.87 116.931 169.72 117.281 169.45C117.631 169.18 117.121 169.24 117.061 168.26C117.036 167.617 117.159 166.978 117.421 166.39C118.831 167.22 120.271 168.08 121.591 168.89C121.387 169.388 121.306 169.928 121.355 170.464C121.404 171 121.581 171.516 121.871 171.97C121.884 171.987 121.9 172.001 121.919 172.012C121.937 172.023 121.958 172.03 121.979 172.032C122.001 172.035 122.022 172.034 122.043 172.028C122.064 172.023 122.084 172.013 122.101 172C122.118 171.987 122.132 171.97 122.143 171.952C122.153 171.933 122.16 171.912 122.163 171.891C122.166 171.87 122.165 171.848 122.159 171.827C122.153 171.806 122.144 171.787 122.131 171.77C121.951 171.373 121.862 170.94 121.871 170.504C121.879 170.068 121.985 169.64 122.181 169.25C124.511 170.67 126.391 171.86 126.971 172.25C126.861 172.35 116.431 181.63 112.881 184.39C110.551 183.78 98.3206 177.71 94.7506 174.87ZM95.1306 180.44C99.6606 182.44 109.951 187.08 112.321 187.53C112.731 187.61 112.891 187.64 113.671 187.02C117.001 184.35 127.831 173.02 127.931 173.14C127.935 173.17 127.935 173.2 127.931 173.23V175.23C125.701 177.02 113.301 190.04 113.101 189.42C112.101 189.42 95.8506 182.79 95.0206 182.42C95.0006 182 95.0906 180.88 95.1306 180.44ZM113.341 194.22C112.341 194.79 97.1106 188.6 95.0706 187.34C94.994 186.703 94.9573 186.062 94.9606 185.42C99.3406 187.58 112.081 192.96 113.251 192.91C114.961 192.82 127.051 179.21 127.911 178.26C127.921 178.771 127.87 179.281 127.761 179.78C127.591 180.11 114.001 193.85 113.341 194.22ZM30.4906 137.85C30.5606 138.92 30.6106 139.85 30.6106 140.72C30.6106 140.852 30.6633 140.98 30.7571 141.073C30.8508 141.167 30.978 141.22 31.1106 141.22C31.2432 141.22 31.3704 141.167 31.4642 141.073C31.5579 140.98 31.6106 140.852 31.6106 140.72C31.6106 139.79 31.5606 138.87 31.4906 137.78C31.4813 137.647 31.4198 137.524 31.3194 137.437C31.2191 137.349 31.0882 137.306 30.9556 137.315C30.823 137.324 30.6995 137.386 30.6123 137.486C30.5251 137.586 30.4813 137.717 30.4906 137.85ZM182.861 117.8C182.795 117.804 182.731 117.82 182.673 117.849C182.614 117.878 182.562 117.918 182.519 117.968C182.476 118.017 182.443 118.075 182.423 118.137C182.403 118.199 182.395 118.265 182.401 118.33C182.461 119.25 182.521 120.24 182.521 121.2C182.521 121.332 182.573 121.46 182.667 121.553C182.761 121.647 182.888 121.7 183.021 121.7C183.153 121.7 183.28 121.647 183.374 121.553C183.468 121.46 183.521 121.332 183.521 121.2C183.521 120.2 183.461 119.2 183.391 118.26C183.387 118.195 183.37 118.131 183.341 118.072C183.312 118.013 183.272 117.961 183.223 117.918C183.173 117.875 183.116 117.843 183.054 117.822C182.991 117.802 182.926 117.794 182.861 117.8ZM27.9006 135.36C28.0332 135.36 28.1604 135.307 28.2542 135.213C28.3479 135.12 28.4006 134.992 28.4006 134.86C28.4006 134.727 28.3479 134.6 28.2542 134.506C28.1604 134.413 28.0332 134.36 27.9006 134.36C26.6906 134.36 25.6806 134.45 24.6806 134.43C24.5471 134.43 24.4188 134.482 24.3235 134.576C24.2281 134.669 24.1732 134.796 24.1706 134.93C24.1706 135.062 24.2233 135.19 24.3171 135.283C24.4108 135.377 24.538 135.43 24.6706 135.43C25.7006 135.45 26.8306 135.41 27.9006 135.36ZM179.761 114.84C178.561 114.84 177.551 114.91 176.541 114.92C176.408 114.92 176.281 114.973 176.187 115.066C176.093 115.16 176.041 115.287 176.041 115.42C176.041 115.552 176.093 115.68 176.187 115.773C176.281 115.867 176.408 115.92 176.541 115.92C177.621 115.92 178.741 115.92 179.821 115.84C179.953 115.832 180.077 115.772 180.165 115.672C180.254 115.573 180.299 115.442 180.291 115.31C180.283 115.177 180.222 115.053 180.123 114.965C180.024 114.877 179.893 114.832 179.761 114.84ZM30.2206 129.18C30.2806 130.1 30.3406 131.09 30.3406 132.05C30.3432 132.182 30.3967 132.307 30.4899 132.401C30.5831 132.494 30.7088 132.547 30.8406 132.55C30.9732 132.55 31.1004 132.497 31.1942 132.403C31.2879 132.31 31.3406 132.182 31.3406 132.05C31.3406 131.05 31.2806 130.05 31.2206 129.11C31.2113 128.977 31.1498 128.854 31.0494 128.767C30.9491 128.679 30.8182 128.636 30.6856 128.645C30.553 128.654 30.4295 128.716 30.3423 128.816C30.2551 128.916 30.2113 129.047 30.2206 129.18ZM183.251 112.53C183.251 111.53 183.191 110.53 183.121 109.59C183.111 109.457 183.05 109.334 182.949 109.247C182.849 109.159 182.718 109.116 182.586 109.125C182.453 109.134 182.33 109.196 182.242 109.296C182.155 109.396 182.111 109.527 182.121 109.66C182.181 110.58 182.241 111.57 182.241 112.53C182.241 112.662 182.293 112.79 182.387 112.883C182.481 112.977 182.608 113.03 182.741 113.03C182.874 113.03 183.002 112.978 183.098 112.884C183.193 112.791 183.248 112.663 183.251 112.53ZM37.6006 135.23C37.6663 135.227 37.7308 135.212 37.7905 135.184C37.8502 135.157 37.9039 135.118 37.9484 135.069C37.993 135.021 38.0276 134.964 38.0503 134.903C38.073 134.841 38.0833 134.776 38.0806 134.71C38.0705 134.579 38.0113 134.457 37.9149 134.368C37.8184 134.279 37.6919 134.229 37.5606 134.23C36.3506 134.28 35.3406 134.32 34.3306 134.3C34.198 134.3 34.0708 134.353 33.9771 134.446C33.8833 134.54 33.8306 134.667 33.8306 134.8C33.8306 134.932 33.8833 135.06 33.9771 135.153C34.0708 135.247 34.198 135.3 34.3306 135.3C35.4006 135.32 36.5206 135.28 37.6006 135.23ZM189.461 114.71C188.461 114.76 187.351 114.79 186.241 114.79C186.175 114.787 186.109 114.798 186.047 114.821C185.985 114.845 185.929 114.88 185.881 114.926C185.833 114.972 185.796 115.027 185.77 115.088C185.744 115.148 185.731 115.214 185.731 115.28C185.731 115.413 185.783 115.542 185.876 115.637C185.97 115.732 186.097 115.787 186.231 115.79C187.371 115.79 188.291 115.79 189.501 115.71C189.566 115.707 189.631 115.692 189.69 115.664C189.75 115.637 189.804 115.598 189.848 115.549C189.893 115.501 189.928 115.444 189.95 115.383C189.973 115.321 189.983 115.256 189.981 115.19C189.968 115.06 189.908 114.939 189.812 114.85C189.716 114.762 189.591 114.712 189.461 114.71ZM14.6206 105.6C14.7506 105.7 42.9506 101.52 44.1606 100.78C44.2276 100.731 44.2811 100.666 44.3161 100.591C44.3511 100.515 44.3664 100.433 44.3606 100.35C44.3606 99.0599 42.6706 86.9499 41.8606 83.9299C41.7606 83.5599 41.6606 83.1899 41.4306 83.0599C39.9006 82.1399 12.9406 87.2199 11.3306 88.2599C11.287 88.2856 11.2493 88.3203 11.22 88.3617C11.1907 88.4031 11.1705 88.4501 11.1606 88.4999C10.8206 89.7099 13.7506 105 14.6206 105.6ZM11.7706 88.7399C13.6906 87.8699 38.1606 83.3899 40.9606 83.7399C41.6406 85.4899 43.4606 98.3099 43.5806 100.19C42.1906 100.6 15.0006 105.27 14.9006 105.29C14.8006 105.31 14.7906 105.43 14.5806 104.8C13.7006 102.16 11.7206 90.9999 11.7706 88.7399Z" fill="#ffffff"/>
<path d="M46.3603 101.67C46.4147 101.569 46.439 101.454 46.4303 101.34C46.4303 99.7498 44.1503 82.0998 43.3403 80.6898C43.2768 80.5859 43.1869 80.5006 43.0798 80.4426C42.9727 80.3847 42.8521 80.3561 42.7303 80.3598C39.3803 79.9498 11.1203 85.4698 9.26033 86.7598C9.00033 86.9398 9.04033 87.3898 9.07033 87.8698C9.23033 90.4998 12.0703 107.8 13.0703 107.7C13.1803 107.7 13.1403 107.62 12.8803 108.15C11.3203 111.36 8.36033 121.64 8.42033 123.71C8.42033 124.58 8.62033 125.71 9.48033 125.65C15.6503 124.89 45.9003 120.09 54.6003 118.3C54.9403 118.23 55.1603 117.92 55.1503 117.41C55.0477 116.56 54.7901 115.737 54.3903 114.98C53.1703 112.69 48.1103 103.62 46.3603 101.67ZM13.1303 107.39C12.3503 106.39 9.48033 89.1598 9.70033 87.2498C11.9003 86.1098 39.7803 80.7198 42.7003 81.1598C43.5003 83.3598 45.5703 99.2498 45.7003 101.16C42.1603 102.38 17.6503 106.34 13.1303 107.39ZM13.5703 107.69C14.4103 107.48 43.0203 102.69 45.6403 102C47.0703 103.33 53.5303 114.82 53.9503 115.8C48.2103 116.8 14.1603 122.49 9.15033 123.25C9.22033 120.22 12.3303 109.63 13.5703 107.69Z" fill="#ffffff"/>
<path d="M17.3299 118.06C18.1999 117.93 36.6599 115.71 43.3299 113.9C43.371 113.889 43.4062 113.863 43.4277 113.826C43.4493 113.79 43.4555 113.746 43.4449 113.705C43.4342 113.664 43.4077 113.629 43.3712 113.607C43.3346 113.585 43.291 113.579 43.2499 113.59C41.9399 113.86 25.9599 115.99 17.3099 117.75C17.286 117.746 17.2614 117.747 17.238 117.753C17.2147 117.76 17.1931 117.772 17.175 117.788C17.1569 117.804 17.1427 117.824 17.1335 117.847C17.1243 117.869 17.1203 117.893 17.1219 117.918C17.1234 117.942 17.1305 117.965 17.1425 117.987C17.1545 118.008 17.1712 118.026 17.1912 118.039C17.2113 118.053 17.2342 118.062 17.2582 118.066C17.2822 118.069 17.3067 118.067 17.3299 118.06ZM30.8199 48.4799C30.4463 49.3236 30.1322 50.1924 29.8799 51.0799C29.865 51.2224 29.9042 51.3652 29.9899 51.4799C30.9999 52.9999 41.3499 64.6699 44.0499 66.3099C44.4199 66.5399 44.8599 66.6999 45.1299 66.3699C47.0912 63.9294 49.6509 62.0381 52.5599 60.8799C54.9275 60.0423 57.4098 59.5735 59.9199 59.4899C61.9199 59.3099 62.2699 59.1099 63.0399 57.7999C63.9482 56.0759 65.1533 54.5255 66.5999 53.2199C68.4444 51.6072 70.4917 50.2423 72.6899 49.1599C72.7888 49.1039 72.8662 49.0163 72.9097 48.9112C72.9531 48.8061 72.9602 48.6895 72.9299 48.5799C72.5918 47.7197 72.1448 46.9064 71.5999 46.1599C71.9599 46.0399 72.3599 45.9299 72.3599 45.5699C72.3599 44.5699 63.6399 31.9499 61.2199 29.5699C60.9699 29.3199 60.6099 28.9899 60.2799 29.0099C55.2799 29.2899 50.4099 34.0099 47.5899 38.1299C44.3599 38.0099 42.2699 37.7199 38.5899 39.2699C35.9919 40.3727 33.6497 42 31.7099 44.0499C31.4099 44.3599 29.3699 46.5199 29.3399 46.6899C29.3099 46.8599 29.3699 46.8599 30.8199 48.4799ZM70.8199 48.1999C66.6499 48.9099 63.9899 52.3799 62.0299 56.1499C61.1599 57.8299 61.2399 57.9099 60.3199 57.8899C58.7111 57.7988 57.0973 57.8591 55.4999 58.0699C54.3282 58.2451 53.1761 58.5331 52.0599 58.9299C49.5199 59.8299 46.6099 62.7099 45.0599 64.8499C45.0269 64.894 44.9851 64.9305 44.937 64.9572C44.889 64.9839 44.8358 65.0002 44.7811 65.0049C44.7263 65.0096 44.6711 65.0027 44.6192 64.9846C44.5673 64.9665 44.5198 64.9377 44.4799 64.8999C41.2299 61.5499 35.4799 55.6699 32.5899 52.2899C32.4499 52.1399 32.6899 51.9199 32.8299 52.0799C34.6999 54.0799 39.5299 58.8699 44.7099 64.0799C46.4599 61.8499 49.1599 59.1499 51.8299 58.2099C53.2858 57.6906 54.8008 57.3547 56.3399 57.2099C57.7811 57.1005 59.2286 57.1005 60.6699 57.2099C61.2599 56.5299 64.1799 48.8099 70.7999 47.9499C70.8192 47.9642 70.8352 47.9826 70.8465 48.0038C70.8577 48.025 70.8641 48.0485 70.8651 48.0725C70.866 48.0966 70.8616 48.1205 70.852 48.1425C70.8424 48.1646 70.828 48.1842 70.8099 48.1999H70.8199ZM60.2699 29.8199C62.2699 31.2199 70.4099 43.2699 71.4699 45.3799C69.6305 45.9627 67.8548 46.73 66.1699 47.6699C64.5742 48.4698 63.1771 49.6156 62.0803 51.0238C60.9836 52.4319 60.2147 54.067 59.8299 55.8099C56.2399 49.9699 51.2299 43.5399 47.8999 38.8099C48.0999 38.6799 53.7199 30.2099 60.2699 29.8199ZM38.8099 39.8199C42.4599 38.3499 44.4799 38.6899 47.4999 38.8199C50.4999 43.9399 55.8899 51.1599 59.4399 55.8899C56.1633 55.1146 52.7154 55.5888 49.7699 57.2199C47.9999 58.2199 45.8399 60.6199 44.5099 62.1099C42.5899 60.5699 31.5099 48.7699 29.7299 46.7699C32.4699 43.6699 34.9999 41.3399 38.8099 39.7799V39.8199ZM20.5099 65.2499C20.2627 65.0765 19.9705 64.9785 19.6688 64.9678C19.367 64.9572 19.0686 65.0343 18.8099 65.1899C18.6214 65.274 18.4514 65.3943 18.3094 65.5441C18.1675 65.6939 18.0564 65.8701 17.9826 66.0628C17.9088 66.2555 17.8736 66.4608 17.8792 66.6671C17.8847 66.8733 17.9308 67.0765 18.0149 67.2649C18.0989 67.4534 18.2192 67.6234 18.369 67.7654C18.5188 67.9073 18.695 68.0184 18.8877 68.0922C19.0804 68.166 19.2857 68.2012 19.492 68.1956C19.6983 68.1901 19.9014 68.144 20.0899 68.0599C20.3909 67.9941 20.6648 67.8383 20.8753 67.6133C21.0858 67.3882 21.2229 67.1045 21.2685 66.7997C21.314 66.4949 21.2659 66.1835 21.1304 65.9067C20.9949 65.63 20.7785 65.4009 20.5099 65.2499ZM19.8499 67.2499C19.1499 67.4699 18.7299 67.2499 18.5599 66.9099C18.2399 66.1999 18.6399 65.1099 19.6799 65.4299C20.4099 65.6999 20.9999 66.9299 19.8499 67.2999V67.2499ZM71.3599 19.4899C71.6499 20.0799 72.9999 19.8599 73.5899 19.6699C73.8999 19.5699 74.0999 19.4599 74.1299 19.1599C74.2199 18.4099 74.3199 11.9099 73.9799 11.2799C73.9447 11.2139 73.8909 11.1597 73.8251 11.1241C73.7592 11.0885 73.6844 11.0731 73.6099 11.0799C72.5429 11.077 71.4814 11.232 70.4599 11.5399C70.0499 11.7899 70.9999 18.8299 71.3599 19.4899ZM70.6699 11.7799C71.5936 11.6478 72.5278 11.6043 73.4599 11.6499C73.5199 12.3899 73.3599 18.7999 73.3499 18.8999C72.9274 19.0513 72.4763 19.106 72.0299 19.0599C71.9599 18.8299 71.8399 18.2099 71.6899 17.4299C71.2492 15.5662 70.9087 13.6801 70.6699 11.7799ZM19.5399 56.8099C19.6358 56.8591 19.7421 56.8847 19.8499 56.8847C19.9577 56.8847 20.0639 56.8591 20.1599 56.8099C20.5462 56.5716 20.8526 56.2234 21.0399 55.8099C21.0653 55.7438 21.0731 55.6721 21.0626 55.602C21.0521 55.5319 21.0236 55.4657 20.9799 55.4099C20.4999 54.8399 15.2599 48.7699 14.6199 49.1499C13.8341 49.6586 13.0885 50.227 12.3899 50.8499C12.3617 50.8751 12.3391 50.9059 12.3236 50.9404C12.3081 50.9748 12.3 51.0122 12.2999 51.0499C12.2799 51.5699 18.0999 56.2299 19.5399 56.8099ZM14.7399 49.4099C15.4699 49.9399 17.9299 52.9799 20.2099 55.6699C20.1118 55.8244 19.9903 55.9627 19.8499 56.0799C17.4527 54.5457 15.164 52.8484 12.9999 50.9999C13.5424 50.4303 14.1238 49.899 14.7399 49.4099ZM30.4499 27.3499C30.6699 23.4699 32.9299 21.6699 35.2899 21.2099C34.6199 23.6699 34.7299 26.8699 37.1599 27.2799C38.3199 27.4699 38.8899 26.8699 39.7299 26.1699C43.3199 23.1699 40.4199 20.1699 36.3699 20.3799C37.8799 16.2399 41.3699 12.8699 45.9999 12.7599C46.0423 12.7599 46.083 12.7431 46.113 12.7131C46.143 12.6831 46.1599 12.6424 46.1599 12.5999C46.1599 12.5575 46.143 12.5168 46.113 12.4868C46.083 12.4568 46.0423 12.4399 45.9999 12.4399C40.9999 12.3399 37.0699 15.9399 35.5199 20.4399C32.8499 20.8999 30.1999 22.8999 30.1299 27.2899C30.1259 27.311 30.1262 27.3325 30.1306 27.3535C30.135 27.3744 30.1434 27.3942 30.1555 27.4119C30.1676 27.4295 30.183 27.4446 30.2009 27.4563C30.2188 27.468 30.2388 27.476 30.2599 27.4799C30.2809 27.4839 30.3024 27.4836 30.3234 27.4792C30.3443 27.4748 30.3641 27.4664 30.3818 27.4543C30.3994 27.4422 30.4145 27.4268 30.4262 27.4089C30.4379 27.391 30.4459 27.371 30.4499 27.3499ZM36.1399 21.0899C37.6299 20.9899 39.8499 21.4499 40.4599 22.7999C40.8099 23.5699 40.4599 24.5199 39.2199 25.5599C38.8832 25.8972 38.4992 26.1835 38.0799 26.4099C36.5799 27.0499 34.9199 25.1999 36.1399 21.0899ZM38.9999 162.52C38.0337 162.261 37.0256 162.198 36.0348 162.335C35.0439 162.471 34.0905 162.805 33.2304 163.316C32.3704 163.826 31.6212 164.504 31.0269 165.308C30.4326 166.113 30.0052 167.028 29.7699 168C29.3256 170.02 29.7019 172.133 30.8158 173.875C31.9298 175.617 33.6902 176.846 35.7099 177.29C37.7295 177.734 39.8429 177.358 41.5851 176.244C43.3273 175.13 44.5556 173.37 44.9999 171.35C45.1896 170.376 45.1847 169.374 44.9854 168.402C44.7861 167.429 44.3963 166.506 43.8385 165.686C43.2808 164.865 42.5661 164.162 41.7356 163.619C40.9052 163.076 39.9754 162.702 38.9999 162.52ZM42.0899 170.67C41.6886 172.27 40.7281 173.674 39.3819 174.628C38.0356 175.582 36.3926 176.022 34.7499 175.87C33.2418 175.281 31.9899 174.179 31.2144 172.757C30.4389 171.336 30.1894 169.687 30.5099 168.1C30.884 166.461 31.8357 165.011 33.1908 164.016C34.5459 163.021 36.2139 162.546 37.8899 162.68C39.4128 163.309 40.6649 164.455 41.4258 165.917C42.1868 167.378 42.4077 169.062 42.0499 170.67H42.0899Z" fill="#ffffff"/>
<path d="M52.3203 165.37C51.4498 165.069 50.5168 164.997 49.6103 165.16C49.2346 164.298 48.7722 163.478 48.2303 162.71C48.8803 162.12 50.6603 160.48 50.2303 159.71C48.7 157.879 46.8831 156.309 44.8503 155.06C44.0015 154.584 43.0668 154.282 42.1003 154.17C41.4603 154.26 39.9403 156.75 39.6003 157.31C39.3803 157.31 38.6003 157.06 38.5403 157.03C38.5403 156.31 38.3303 153.71 37.6803 153.41C36.9535 153.142 36.1987 152.958 35.4303 152.86C34.7203 152.75 28.3303 153.92 27.8603 154.78C27.5503 155.36 28.2703 157.55 28.4803 158.16C27.941 158.457 27.4231 158.791 26.9303 159.16C25.9303 159.87 26.2003 159.84 26.0203 159.76C25.8028 159.656 25.5697 159.588 25.3303 159.56C24.5315 159.091 23.5949 158.915 22.6803 159.06C21.7603 159.36 19.5903 164.3 19.2403 165.57C19.1258 165.89 19.0948 166.234 19.1503 166.57C19.3903 167.23 20.9903 167.76 21.6603 167.97C21.4753 169.256 21.4753 170.563 21.6603 171.85C20.7803 172.09 18.9503 172.63 19.0503 173.53C19.1503 174.43 21.4903 180.37 22.4603 180.84C22.9917 181.137 23.5793 181.32 24.1855 181.377C24.7916 181.433 25.403 181.363 25.9803 181.17C26.3055 181.007 26.6195 180.824 26.9203 180.62C27.3203 180.92 27.7403 181.19 28.1703 181.45C27.8603 182.22 27.1703 183.94 27.3903 184.72C27.5003 185.13 27.8303 185.26 28.2903 185.43C29.5603 185.89 36.4003 187.53 37.4403 187.35C37.8303 187.29 38.0403 186.88 38.1603 186.49C38.3825 185.602 38.5132 184.694 38.5503 183.78C39.0639 183.729 39.5746 183.652 40.0803 183.55C40.3892 184.093 40.7843 184.583 41.2503 185C41.7603 185.36 42.1903 185.18 42.7703 184.81C43.0503 185.17 43.4703 185.67 43.9203 185.72C45.0503 185.85 49.7203 181.45 50.2003 180.55C50.6003 179.8 49.1403 178.46 48.4903 177.87C49.1935 176.812 49.7455 175.661 50.1303 174.45C50.8516 174.558 51.5815 174.599 52.3103 174.57C52.6403 174.57 53.0203 174.45 53.1603 174.14C53.7703 172.75 53.5903 167.48 53.1603 166.14C53.1003 165.75 52.6503 165.49 52.3203 165.37ZM52.5603 166.29C52.9003 167.59 53.0103 172.5 52.5103 173.77C51.6457 173.855 50.7733 173.815 49.9203 173.65C49.8292 173.634 49.7356 173.653 49.6579 173.703C49.5802 173.753 49.524 173.83 49.5003 173.92C49.1021 175.272 48.4838 176.549 47.6703 177.7C47.6124 177.776 47.5863 177.872 47.5974 177.967C47.6086 178.062 47.6563 178.149 47.7303 178.21C48.4319 178.766 49.0281 179.443 49.4903 180.21C48.9903 181.03 45.0803 184.61 44.0003 184.91C43.8403 184.91 43.4003 184.31 43.2903 184.15C42.9209 183.595 42.5869 183.017 42.2903 182.42C42.247 182.333 42.1728 182.265 42.0821 182.23C41.9915 182.195 41.891 182.195 41.8003 182.23C38.9003 183.32 37.8003 182.68 37.8003 183.4C37.8016 184.478 37.626 185.549 37.2803 186.57C34.9303 186.314 32.616 185.798 30.3803 185.03C30.4883 183.962 30.7863 182.922 31.2603 181.96C31.5603 181.29 30.3603 181.48 28.1203 179.2C28.0482 179.133 27.9536 179.096 27.8553 179.096C27.7571 179.096 27.6624 179.133 27.5903 179.2C26.5903 180.02 25.2903 180.82 25.0303 180.69C24.5203 180.44 22.1703 175.11 22.0303 174.03C22.7416 173.534 23.549 173.193 24.4003 173.03C24.4911 173.004 24.5695 172.946 24.621 172.867C24.6725 172.788 24.6936 172.693 24.6803 172.6C24.4353 171.184 24.4353 169.736 24.6803 168.32C24.6956 168.233 24.6773 168.143 24.629 168.069C24.5808 167.994 24.5062 167.941 24.4203 167.92C23.6665 167.722 22.9407 167.43 22.2603 167.05C22.0403 166.89 22.0603 166.9 22.0803 166.73C22.7276 164.395 23.7656 162.187 25.1503 160.2C25.6903 160.05 27.1503 161.12 27.6503 161.5C27.7026 161.55 27.7725 161.579 27.8453 161.579C27.9181 161.579 27.9881 161.55 28.0403 161.5C28.4998 161.023 28.9945 160.582 29.5203 160.18C31.0403 159.03 31.4503 159.18 31.3203 158.78C30.8606 157.776 30.6024 156.693 30.5603 155.59C30.7153 155.461 30.8912 155.359 31.0803 155.29C32.0139 154.921 32.9731 154.62 33.9503 154.39C35.1348 154.06 36.3523 153.862 37.5803 153.8C37.7903 153.89 37.9803 154.8 38.0303 155.08C38.4003 157.08 38.1503 157.49 38.4403 157.52C41.2903 157.8 41.8703 158.59 42.0703 158.24C42.6249 157.27 43.2711 156.356 44.0003 155.51C44.2103 155.3 44.2003 155.2 44.8303 155.56C46.7124 156.79 48.3981 158.297 49.8303 160.03C49.9803 160.29 48.6803 161.67 47.7303 162.48C47.4003 162.77 47.8703 162.9 48.7303 164.54C49.5903 166.18 49.3903 166.64 49.8503 166.54C50.7371 166.327 51.6497 166.243 52.5603 166.29ZM191.35 82.7298C189.254 81.8735 187.056 81.292 184.81 80.9998C183.17 80.7398 181.24 80.4798 179.61 80.2698C181.18 78.0498 185.83 72.4298 186.61 71.0598C186.83 70.6898 186.41 70.1698 186.1 69.8598C184.36 67.9998 181 67.2998 178.42 66.8998C176.94 66.6598 170.76 65.8998 169.71 66.3998C168.45 66.9998 159.13 80.9998 158.85 83.1298C158.85 83.4898 158.97 83.6298 159.32 83.7598C160.79 84.2998 167.42 85.1398 168.9 85.4898C166.9 88.9898 158.01 100.82 157.14 102.49C156.93 102.91 157.06 103.16 157.31 103.24C158.21 103.597 159.136 103.885 160.08 104.1C160.44 104.21 161.23 103.72 162.38 103.02C167.54 99.9198 189.68 85.2998 191.38 83.4098C191.427 83.3654 191.464 83.3115 191.488 83.2516C191.513 83.1918 191.524 83.1274 191.521 83.0629C191.518 82.9984 191.501 82.9353 191.472 82.8778C191.442 82.8203 191.401 82.7698 191.35 82.7298ZM169.86 94.7298C161.36 100.34 158.49 101.98 158.39 102.05C159.76 99.9598 168.27 88.2998 169.73 85.5098C169.756 85.4559 169.769 85.397 169.769 85.3374C169.768 85.2778 169.755 85.219 169.729 85.1654C169.703 85.1117 169.665 85.0645 169.619 85.0272C169.573 84.9899 169.518 84.9634 169.46 84.9498C168.46 84.5898 161.18 83.8098 159.46 83.1998C159.68 81.3398 168.76 67.2798 169.86 66.7198C170.96 66.1598 181.63 67.4298 183.63 68.8598C182.58 70.9098 176.78 78.0898 175.84 79.7598C175.65 80.0998 175.59 80.4298 175.96 80.5198C176.33 80.6098 185.73 81.7098 187.78 82.3798C185.28 84.4698 172.66 92.8498 169.86 94.6898V94.7298ZM105.71 33.5898C105.71 33.6798 105.77 33.7898 105.92 34.3698C105.96 34.4956 106.046 34.6013 106.162 34.6647C106.277 34.728 106.413 34.7442 106.54 34.7098C106.668 34.6726 106.775 34.5865 106.839 34.4702C106.902 34.3539 106.917 34.2171 106.88 34.0898C106.78 33.6998 106.69 33.3698 106.63 33.2098C106.572 33.1 106.475 33.0158 106.358 32.9737C106.241 32.9315 106.113 32.9345 105.998 32.982C105.883 33.0294 105.79 33.118 105.737 33.2303C105.683 33.3427 105.674 33.4709 105.71 33.5898Z" fill="#ffffff"/>
</svg>